%TF.GenerationSoftware,KiCad,Pcbnew,9.0.5*%
%TF.CreationDate,2026-02-21T18:27:53-08:00*%
%TF.ProjectId,Heating board,48656174-696e-4672-9062-6f6172642e6b,rev?*%
%TF.SameCoordinates,Original*%
%TF.FileFunction,Copper,L2,Bot*%
%TF.FilePolarity,Positive*%
%FSLAX46Y46*%
G04 Gerber Fmt 4.6, Leading zero omitted, Abs format (unit mm)*
G04 Created by KiCad (PCBNEW 9.0.5) date 2026-02-21 18:27:53*
%MOMM*%
%LPD*%
G01*
G04 APERTURE LIST*
G04 Aperture macros list*
%AMRoundRect*
0 Rectangle with rounded corners*
0 $1 Rounding radius*
0 $2 $3 $4 $5 $6 $7 $8 $9 X,Y pos of 4 corners*
0 Add a 4 corners polygon primitive as box body*
4,1,4,$2,$3,$4,$5,$6,$7,$8,$9,$2,$3,0*
0 Add four circle primitives for the rounded corners*
1,1,$1+$1,$2,$3*
1,1,$1+$1,$4,$5*
1,1,$1+$1,$6,$7*
1,1,$1+$1,$8,$9*
0 Add four rect primitives between the rounded corners*
20,1,$1+$1,$2,$3,$4,$5,0*
20,1,$1+$1,$4,$5,$6,$7,0*
20,1,$1+$1,$6,$7,$8,$9,0*
20,1,$1+$1,$8,$9,$2,$3,0*%
G04 Aperture macros list end*
%TA.AperFunction,ComponentPad*%
%ADD10RoundRect,0.250000X-0.550000X-0.550000X0.550000X-0.550000X0.550000X0.550000X-0.550000X0.550000X0*%
%TD*%
%TA.AperFunction,ComponentPad*%
%ADD11RoundRect,0.250000X-0.550000X0.550000X-0.550000X-0.550000X0.550000X-0.550000X0.550000X0.550000X0*%
%TD*%
%TA.AperFunction,SMDPad,CuDef*%
%ADD12RoundRect,0.237500X0.300000X0.237500X-0.300000X0.237500X-0.300000X-0.237500X0.300000X-0.237500X0*%
%TD*%
%TA.AperFunction,SMDPad,CuDef*%
%ADD13RoundRect,0.237500X0.250000X0.237500X-0.250000X0.237500X-0.250000X-0.237500X0.250000X-0.237500X0*%
%TD*%
%TA.AperFunction,Conductor*%
%ADD14C,0.200000*%
%TD*%
G04 APERTURE END LIST*
D10*
%TO.P,J1,1,Pin_1*%
%TO.N,V+*%
X145300000Y-135500000D03*
%TO.P,J1,2,Pin_2*%
X148900000Y-135500000D03*
%TD*%
D11*
%TO.P,J2,1,Pin_1*%
%TO.N,Net-(J2-Pin_1)*%
X160475000Y-127575000D03*
%TO.P,J2,2,Pin_2*%
%TO.N,Net-(J2-Pin_2)*%
X160475000Y-131175000D03*
%TD*%
D12*
%TO.P,TH1,1*%
%TO.N,Net-(J2-Pin_1)*%
X140437500Y-79750000D03*
%TO.P,TH1,2*%
%TO.N,Net-(TH1-Pad2)*%
X138712500Y-79750000D03*
%TD*%
D13*
%TO.P,TH2,1*%
%TO.N,Net-(J2-Pin_2)*%
X154525000Y-107950000D03*
%TO.P,TH2,2*%
%TO.N,Net-(TH1-Pad2)*%
X152700000Y-107950000D03*
%TD*%
D14*
%TO.N,Net-(J2-Pin_2)*%
X157898000Y-107950000D02*
X154525000Y-107950000D01*
X160598000Y-110650000D02*
X157898000Y-107950000D01*
X159349000Y-126788500D02*
X160598000Y-125539500D01*
X160598000Y-125539500D02*
X160598000Y-110650000D01*
X159349000Y-130049000D02*
X159349000Y-126788500D01*
X160475000Y-131175000D02*
X159349000Y-130049000D01*
%TO.N,Net-(J2-Pin_1)*%
X160425000Y-79750000D02*
X140437500Y-79750000D01*
X160999000Y-80324000D02*
X160425000Y-79750000D01*
X160999000Y-127051000D02*
X160999000Y-80324000D01*
X160475000Y-127575000D02*
X160999000Y-127051000D01*
%TO.N,Net-(TH1-Pad2)*%
X138712500Y-79750000D02*
X138687500Y-79725000D01*
X152700000Y-107950000D02*
X146200000Y-107950000D01*
X133101000Y-106625000D02*
X134401000Y-107925000D01*
X138687500Y-79725000D02*
X134101000Y-79725000D01*
X134401000Y-107925000D02*
X146175000Y-107925000D01*
X133101000Y-80725000D02*
X133101000Y-106625000D01*
X134101000Y-79725000D02*
X133101000Y-80725000D01*
X146200000Y-107950000D02*
X146175000Y-107925000D01*
%TD*%
M02*
