%TF.GenerationSoftware,KiCad,Pcbnew,9.0.5*%
%TF.CreationDate,2026-02-21T18:27:52-08:00*%
%TF.ProjectId,Heating board,48656174-696e-4672-9062-6f6172642e6b,rev?*%
%TF.SameCoordinates,Original*%
%TF.FileFunction,Copper,L1,Top*%
%TF.FilePolarity,Positive*%
%FSLAX46Y46*%
G04 Gerber Fmt 4.6, Leading zero omitted, Abs format (unit mm)*
G04 Created by KiCad (PCBNEW 9.0.5) date 2026-02-21 18:27:52*
%MOMM*%
%LPD*%
G01*
G04 APERTURE LIST*
G04 Aperture macros list*
%AMRoundRect*
0 Rectangle with rounded corners*
0 $1 Rounding radius*
0 $2 $3 $4 $5 $6 $7 $8 $9 X,Y pos of 4 corners*
0 Add a 4 corners polygon primitive as box body*
4,1,4,$2,$3,$4,$5,$6,$7,$8,$9,$2,$3,0*
0 Add four circle primitives for the rounded corners*
1,1,$1+$1,$2,$3*
1,1,$1+$1,$4,$5*
1,1,$1+$1,$6,$7*
1,1,$1+$1,$8,$9*
0 Add four rect primitives between the rounded corners*
20,1,$1+$1,$2,$3,$4,$5,0*
20,1,$1+$1,$4,$5,$6,$7,0*
20,1,$1+$1,$6,$7,$8,$9,0*
20,1,$1+$1,$8,$9,$2,$3,0*%
G04 Aperture macros list end*
%TA.AperFunction,ComponentPad*%
%ADD10RoundRect,0.250000X-0.550000X-0.550000X0.550000X-0.550000X0.550000X0.550000X-0.550000X0.550000X0*%
%TD*%
%TA.AperFunction,ComponentPad*%
%ADD11RoundRect,0.250000X-0.550000X0.550000X-0.550000X-0.550000X0.550000X-0.550000X0.550000X0.550000X0*%
%TD*%
%TA.AperFunction,Conductor*%
%ADD12C,0.200000*%
%TD*%
G04 APERTURE END LIST*
D10*
%TO.P,J1,1,Pin_1*%
%TO.N,V+*%
X145300000Y-135500000D03*
%TO.P,J1,2,Pin_2*%
X148900000Y-135500000D03*
%TD*%
D11*
%TO.P,J2,1,Pin_1*%
%TO.N,Net-(J2-Pin_1)*%
X160475000Y-127575000D03*
%TO.P,J2,2,Pin_2*%
%TO.N,Net-(J2-Pin_2)*%
X160475000Y-131175000D03*
%TD*%
D12*
%TO.N,V+*%
X158145000Y-115220000D02*
X147325000Y-115220000D01*
X146875000Y-74560963D02*
X137861000Y-74560963D01*
X147325000Y-127220000D02*
X146875000Y-127220000D01*
X154100000Y-132965000D02*
X154100000Y-132725000D01*
X158870000Y-59509963D02*
X158870000Y-59281963D01*
X147325000Y-91727000D02*
X159377000Y-91727000D01*
X146875000Y-109925000D02*
X146875000Y-108192868D01*
X146875000Y-87467000D02*
X136423000Y-87467000D01*
X156900000Y-130565000D02*
X156900000Y-130325000D01*
X147325000Y-92547000D02*
X146875000Y-92547000D01*
X155810000Y-103694000D02*
X155810000Y-103440000D01*
X160470000Y-66349963D02*
X160470000Y-66121963D01*
X136555000Y-128870000D02*
X146875000Y-128870000D01*
X134350000Y-119765000D02*
X134350000Y-119525000D01*
X146875000Y-124070000D02*
X147325000Y-124070000D01*
X156645000Y-130070000D02*
X147325000Y-130070000D01*
X146875000Y-55630963D02*
X147325000Y-55630963D01*
X158427000Y-87467000D02*
X147325000Y-87467000D01*
X147325000Y-60880963D02*
X146875000Y-60880963D01*
X147325000Y-70000963D02*
X146875000Y-70000963D01*
X146875000Y-65440963D02*
X134311000Y-65440963D01*
X147325000Y-129620000D02*
X146875000Y-129620000D01*
X147325000Y-130070000D02*
X146875000Y-130070000D01*
X137950000Y-131765000D02*
X137950000Y-131525000D01*
X134473000Y-91277000D02*
X146875000Y-91277000D01*
X135690000Y-87184000D02*
X135690000Y-86930000D01*
X147325000Y-98897000D02*
X158827000Y-98897000D01*
X138290000Y-84644000D02*
X138290000Y-84390000D01*
X142511000Y-52900963D02*
X146644000Y-52900963D01*
X134830000Y-69769963D02*
X134830000Y-69541963D01*
X134555000Y-123620000D02*
X146875000Y-123620000D01*
X136050000Y-114965000D02*
X136050000Y-114725000D01*
X140923000Y-103977000D02*
X146875000Y-103977000D01*
X157100000Y-113765000D02*
X157100000Y-113525000D01*
X154989000Y-75010963D02*
X147325000Y-75010963D01*
X135100000Y-117365000D02*
X135100000Y-117125000D01*
X158550000Y-128165000D02*
X158550000Y-127925000D01*
X147325000Y-86647000D02*
X156777000Y-86647000D01*
X147325000Y-103157000D02*
X146875000Y-103157000D01*
X136300000Y-129365000D02*
X136300000Y-129125000D01*
X146875000Y-60190963D02*
X147325000Y-60190963D01*
X142823000Y-81117000D02*
X146592000Y-81117000D01*
X159920000Y-64069963D02*
X159920000Y-63841963D01*
X147325000Y-64300963D02*
X159689000Y-64300963D01*
X146875000Y-62020963D02*
X147325000Y-62020963D01*
X146875000Y-88737000D02*
X147325000Y-88737000D01*
X146875000Y-68170963D02*
X134461000Y-68170963D01*
X153889000Y-54040963D02*
X147325000Y-54040963D01*
X146875000Y-59050963D02*
X136661000Y-59050963D01*
X147325000Y-90007000D02*
X146875000Y-90007000D01*
X146875000Y-87917000D02*
X136423000Y-87917000D01*
X133780000Y-67489963D02*
X133780000Y-67261963D01*
X146875000Y-67720963D02*
X134461000Y-67720963D01*
X150870000Y-77749963D02*
X150870000Y-77521963D01*
X146875000Y-71590963D02*
X147325000Y-71590963D01*
X159950000Y-123365000D02*
X159950000Y-123125000D01*
X154120000Y-54949963D02*
X154120000Y-54721963D01*
X160400000Y-123365000D02*
X160400000Y-123125000D01*
X135061000Y-68860963D02*
X146875000Y-68860963D01*
X147325000Y-112820000D02*
X146875000Y-112820000D01*
X157470000Y-73189963D02*
X157470000Y-72961963D01*
X136423000Y-86647000D02*
X146875000Y-86647000D01*
X134473000Y-91727000D02*
X146875000Y-91727000D01*
X151320000Y-77749963D02*
X151320000Y-77521963D01*
X147325000Y-86197000D02*
X156777000Y-86197000D01*
X149877000Y-105697000D02*
X147608000Y-105697000D01*
X147325000Y-84107000D02*
X153877000Y-84107000D01*
X147325000Y-126470000D02*
X159245000Y-126470000D01*
X146875000Y-120020000D02*
X134605000Y-120020000D01*
X146875000Y-80580000D02*
X146875000Y-79750000D01*
X147556000Y-77980963D02*
X150639000Y-77980963D01*
X146875000Y-111620000D02*
X147580000Y-111620000D01*
X140080000Y-76609963D02*
X140080000Y-76381963D01*
X154610000Y-83374000D02*
X154610000Y-83120000D01*
X135061000Y-69310963D02*
X146875000Y-69310963D01*
X142540000Y-82104000D02*
X142540000Y-81850000D01*
X136111000Y-71140963D02*
X146875000Y-71140963D01*
X158850000Y-116165000D02*
X158850000Y-115925000D01*
X133640000Y-94804000D02*
X133640000Y-94550000D01*
X146875000Y-70450963D02*
X135061000Y-70450963D01*
X133850000Y-124565000D02*
X133850000Y-124325000D01*
X140761000Y-75700963D02*
X146875000Y-75700963D01*
X158589000Y-70450963D02*
X147325000Y-70450963D01*
X159810000Y-96074000D02*
X159810000Y-95820000D01*
X135361000Y-60190963D02*
X146875000Y-60190963D01*
X146875000Y-124820000D02*
X134555000Y-124820000D01*
X147325000Y-117620000D02*
X146875000Y-117620000D01*
X146875000Y-84927000D02*
X138573000Y-84927000D01*
X147608000Y-105247000D02*
X146875000Y-105247000D01*
X146644000Y-54490963D02*
X142511000Y-54490963D01*
X158295000Y-127670000D02*
X147325000Y-127670000D01*
X156777000Y-85377000D02*
X147325000Y-85377000D01*
X147325000Y-63160963D02*
X146875000Y-63160963D01*
X134311000Y-64750963D02*
X146875000Y-64750963D01*
X146875000Y-103977000D02*
X147325000Y-103977000D01*
X159195000Y-118070000D02*
X147325000Y-118070000D01*
X146875000Y-130070000D02*
X136555000Y-130070000D01*
X159689000Y-63160963D02*
X147325000Y-63160963D01*
X147325000Y-124070000D02*
X159695000Y-124070000D01*
X146875000Y-132470000D02*
X138655000Y-132470000D01*
X146875000Y-73420963D02*
X147325000Y-73420963D01*
X160460000Y-93534000D02*
X160460000Y-93280000D01*
X142280000Y-53809963D02*
X142280000Y-53581963D01*
X147325000Y-73420963D02*
X157239000Y-73420963D01*
X134590000Y-97344000D02*
X134590000Y-97090000D01*
X134605000Y-118820000D02*
X146875000Y-118820000D01*
X146875000Y-51850000D02*
X146875000Y-51925000D01*
X155360000Y-103694000D02*
X155360000Y-103440000D01*
X147325000Y-62470963D02*
X159189000Y-62470963D01*
X159660000Y-90994000D02*
X159660000Y-90740000D01*
X146875000Y-127220000D02*
X135255000Y-127220000D01*
X146875000Y-101887000D02*
X147325000Y-101887000D01*
X147325000Y-122870000D02*
X146875000Y-122870000D01*
X146875000Y-73870963D02*
X147325000Y-73870963D01*
X140640000Y-104964000D02*
X140640000Y-104710000D01*
X147325000Y-72730963D02*
X146875000Y-72730963D01*
X146592000Y-82387000D02*
X142823000Y-82387000D01*
X147325000Y-52441963D02*
X147325000Y-51900000D01*
X147556000Y-76840963D02*
X146875000Y-76840963D01*
X147325000Y-67030963D02*
X159789000Y-67030963D01*
X136423000Y-86197000D02*
X146875000Y-86197000D01*
X135980000Y-58369963D02*
X135980000Y-58141963D01*
X147325000Y-59740963D02*
X158189000Y-59740963D01*
X147325000Y-68860963D02*
X159389000Y-68860963D01*
X146875000Y-69310963D02*
X147325000Y-69310963D01*
X147325000Y-130820000D02*
X156645000Y-130820000D01*
X156395000Y-112820000D02*
X147325000Y-112820000D01*
X146875000Y-83657000D02*
X147325000Y-83657000D01*
X147325000Y-97627000D02*
X146875000Y-97627000D01*
X146875000Y-92997000D02*
X134473000Y-92997000D01*
X134311000Y-64300963D02*
X146875000Y-64300963D01*
X146875000Y-118820000D02*
X147325000Y-118820000D01*
X138300000Y-112565000D02*
X138300000Y-112325000D01*
X134680000Y-60649963D02*
X134680000Y-60421963D01*
X160260000Y-96074000D02*
X160260000Y-95820000D01*
X146875000Y-86647000D02*
X147325000Y-86647000D01*
X147325000Y-123620000D02*
X159695000Y-123620000D01*
X159000000Y-128165000D02*
X159000000Y-127925000D01*
X147325000Y-90457000D02*
X146875000Y-90457000D01*
X146875000Y-104427000D02*
X147325000Y-104427000D01*
X146875000Y-131270000D02*
X147325000Y-131270000D01*
X159245000Y-125270000D02*
X147325000Y-125270000D01*
X146875000Y-98077000D02*
X134873000Y-98077000D01*
X147580000Y-133220000D02*
X153845000Y-133220000D01*
X147608000Y-106967000D02*
X149877000Y-106967000D01*
X138573000Y-83657000D02*
X146875000Y-83657000D01*
X146875000Y-86197000D02*
X147325000Y-86197000D01*
X147325000Y-51900000D02*
X147150000Y-51725000D01*
X148900000Y-135500000D02*
X147325000Y-133925000D01*
X146875000Y-121670000D02*
X147325000Y-121670000D01*
X142823000Y-81567000D02*
X146592000Y-81567000D01*
X159189000Y-61330963D02*
X147325000Y-61330963D01*
X159689000Y-63610963D02*
X147325000Y-63610963D01*
X146875000Y-118070000D02*
X135355000Y-118070000D01*
X157710000Y-101154000D02*
X157710000Y-100900000D01*
X157350000Y-130565000D02*
X157350000Y-130325000D01*
X138711000Y-55630963D02*
X146875000Y-55630963D01*
X134100000Y-122165000D02*
X134100000Y-121925000D01*
X147325000Y-84927000D02*
X146875000Y-84927000D01*
X147325000Y-108192868D02*
X147325000Y-107250000D01*
X159789000Y-65890963D02*
X147325000Y-65890963D01*
X147325000Y-128420000D02*
X158295000Y-128420000D01*
X142090000Y-82104000D02*
X142090000Y-81850000D01*
X135880000Y-72049963D02*
X135880000Y-71821963D01*
X137180000Y-74329963D02*
X137180000Y-74101963D01*
X149877000Y-105247000D02*
X147608000Y-105247000D01*
X147325000Y-115220000D02*
X146875000Y-115220000D01*
X159695000Y-120020000D02*
X147325000Y-120020000D01*
X146875000Y-128870000D02*
X147325000Y-128870000D01*
X153845000Y-132020000D02*
X147580000Y-132020000D01*
X146875000Y-115220000D02*
X136755000Y-115220000D01*
X146875000Y-115670000D02*
X136755000Y-115670000D01*
X159900000Y-118565000D02*
X159900000Y-118325000D01*
X146875000Y-71140963D02*
X147325000Y-71140963D01*
X147580000Y-112070000D02*
X153345000Y-112070000D01*
X146875000Y-101437000D02*
X147325000Y-101437000D01*
X136661000Y-57460963D02*
X146875000Y-57460963D01*
X146875000Y-119270000D02*
X147325000Y-119270000D01*
X158400000Y-116165000D02*
X158400000Y-115925000D01*
X159560000Y-98614000D02*
X159560000Y-98360000D01*
X159195000Y-117620000D02*
X147325000Y-117620000D01*
X154050000Y-111365000D02*
X154050000Y-111125000D01*
X146644000Y-54040963D02*
X142511000Y-54040963D01*
X147325000Y-109925000D02*
X147325000Y-108192868D01*
X146875000Y-52441963D02*
X146875000Y-51925000D01*
X159270000Y-70909963D02*
X159270000Y-70681963D01*
X155077000Y-102707000D02*
X147325000Y-102707000D01*
X146875000Y-96807000D02*
X147325000Y-96807000D01*
X146875000Y-57910963D02*
X147325000Y-57910963D01*
X157427000Y-100617000D02*
X147325000Y-100617000D01*
X156650000Y-113765000D02*
X156650000Y-113525000D01*
X134380000Y-62929963D02*
X134380000Y-62701963D01*
X147325000Y-80834000D02*
X147325000Y-80580000D01*
X146875000Y-72730963D02*
X136111000Y-72730963D01*
X146875000Y-98897000D02*
X147325000Y-98897000D01*
X147325000Y-121670000D02*
X159695000Y-121670000D01*
X134355000Y-121670000D02*
X146875000Y-121670000D01*
X136500000Y-114965000D02*
X136500000Y-114725000D01*
X156539000Y-56320963D02*
X147325000Y-56320963D01*
X147608000Y-106517000D02*
X149877000Y-106517000D01*
X138573000Y-84107000D02*
X146875000Y-84107000D01*
X147325000Y-61330963D02*
X146875000Y-61330963D01*
X134605000Y-119270000D02*
X146875000Y-119270000D01*
X147325000Y-71590963D02*
X158589000Y-71590963D01*
X134090000Y-94804000D02*
X134090000Y-94550000D01*
X146875000Y-97627000D02*
X134873000Y-97627000D01*
X147000000Y-51725000D02*
X146875000Y-51850000D01*
X146875000Y-121220000D02*
X147325000Y-121220000D01*
X146875000Y-128420000D02*
X147325000Y-128420000D01*
X158145000Y-115670000D02*
X147325000Y-115670000D01*
X158189000Y-59050963D02*
X147325000Y-59050963D01*
X147325000Y-125270000D02*
X146875000Y-125270000D01*
X133630000Y-65209963D02*
X133630000Y-64981963D01*
X147325000Y-95087000D02*
X146875000Y-95087000D01*
X157427000Y-100167000D02*
X147325000Y-100167000D01*
X146875000Y-112070000D02*
X147580000Y-112070000D01*
X147325000Y-56320963D02*
X146875000Y-56320963D01*
X146875000Y-58600963D02*
X136661000Y-58600963D01*
X134840000Y-89724000D02*
X134840000Y-89470000D01*
X146875000Y-114470000D02*
X147325000Y-114470000D01*
X147150000Y-51725000D02*
X147000000Y-51725000D01*
X150610000Y-106234000D02*
X150610000Y-105980000D01*
X134230000Y-67489963D02*
X134230000Y-67261963D01*
X159420000Y-61789963D02*
X159420000Y-61561963D01*
X159695000Y-122420000D02*
X147325000Y-122420000D01*
X146875000Y-92547000D02*
X134473000Y-92547000D01*
X146875000Y-90457000D02*
X135123000Y-90457000D01*
X147325000Y-83657000D02*
X153877000Y-83657000D01*
X147325000Y-54490963D02*
X146644000Y-54490963D01*
X147325000Y-118820000D02*
X159195000Y-118820000D01*
X154160000Y-83374000D02*
X154160000Y-83120000D01*
X160010000Y-93534000D02*
X160010000Y-93280000D01*
X155220000Y-75469963D02*
X155220000Y-75241963D01*
X155670000Y-75469963D02*
X155670000Y-75241963D01*
X146875000Y-100167000D02*
X135873000Y-100167000D01*
X146875000Y-103157000D02*
X137673000Y-103157000D01*
X138030000Y-56089963D02*
X138030000Y-55861963D01*
X139005000Y-112070000D02*
X146875000Y-112070000D01*
X159695000Y-120470000D02*
X147325000Y-120470000D01*
X147325000Y-128870000D02*
X158295000Y-128870000D01*
X147325000Y-120020000D02*
X146875000Y-120020000D01*
X146875000Y-123620000D02*
X147325000Y-123620000D01*
X147325000Y-73870963D02*
X157239000Y-73870963D01*
X147325000Y-75700963D02*
X154989000Y-75700963D01*
X146875000Y-99347000D02*
X147325000Y-99347000D01*
X147325000Y-87467000D02*
X146875000Y-87467000D01*
X146875000Y-125270000D02*
X134555000Y-125270000D01*
X133740000Y-92264000D02*
X133740000Y-92010000D01*
X140761000Y-76150963D02*
X146875000Y-76150963D01*
X153889000Y-54490963D02*
X147325000Y-54490963D01*
X147580000Y-132470000D02*
X146875000Y-132470000D01*
X147325000Y-57460963D02*
X156539000Y-57460963D01*
X155077000Y-103157000D02*
X147325000Y-103157000D01*
X147325000Y-79750000D02*
X147325000Y-78661963D01*
X146875000Y-126470000D02*
X147325000Y-126470000D01*
X134380000Y-69769963D02*
X134380000Y-69541963D01*
X147325000Y-113270000D02*
X146875000Y-113270000D01*
X147608000Y-105697000D02*
X146875000Y-105697000D01*
X135355000Y-116870000D02*
X146875000Y-116870000D01*
X153877000Y-82837000D02*
X147325000Y-82837000D01*
X147325000Y-116420000D02*
X158145000Y-116420000D01*
X135355000Y-116420000D02*
X146875000Y-116420000D01*
X146875000Y-70000963D02*
X135061000Y-70000963D01*
X147325000Y-98077000D02*
X146875000Y-98077000D01*
X137861000Y-73870963D02*
X146875000Y-73870963D01*
X146875000Y-120470000D02*
X134605000Y-120470000D01*
X146875000Y-113270000D02*
X139005000Y-113270000D01*
X133930000Y-62929963D02*
X133930000Y-62701963D01*
X146875000Y-61330963D02*
X135361000Y-61330963D01*
X147325000Y-74560963D02*
X146875000Y-74560963D01*
X154989000Y-74560963D02*
X147325000Y-74560963D01*
X138480000Y-56089963D02*
X138480000Y-55861963D01*
X145300000Y-135500000D02*
X146875000Y-133925000D01*
X147325000Y-96807000D02*
X159527000Y-96807000D01*
X156645000Y-129620000D02*
X147325000Y-129620000D01*
X146875000Y-65890963D02*
X134311000Y-65890963D01*
X134550000Y-126965000D02*
X134550000Y-126725000D01*
X159377000Y-90457000D02*
X147325000Y-90457000D01*
X159789000Y-65440963D02*
X147325000Y-65440963D01*
X153877000Y-82387000D02*
X147325000Y-82387000D01*
X147325000Y-75010963D02*
X146875000Y-75010963D01*
X146875000Y-110165000D02*
X146875000Y-109925000D01*
X141830000Y-53809963D02*
X141830000Y-53581963D01*
X146875000Y-102707000D02*
X137673000Y-102707000D01*
X137630000Y-74329963D02*
X137630000Y-74101963D01*
X134873000Y-96357000D02*
X146875000Y-96357000D01*
X137673000Y-101887000D02*
X146875000Y-101887000D01*
X147325000Y-96357000D02*
X159527000Y-96357000D01*
X146875000Y-52669963D02*
X146875000Y-52441963D01*
X158710000Y-88454000D02*
X158710000Y-88200000D01*
X134611000Y-62020963D02*
X146875000Y-62020963D01*
X146875000Y-100617000D02*
X135873000Y-100617000D01*
X147325000Y-65890963D02*
X146875000Y-65890963D01*
X159160000Y-88454000D02*
X159160000Y-88200000D01*
X147325000Y-55630963D02*
X153889000Y-55630963D01*
X136555000Y-128420000D02*
X146875000Y-128420000D01*
X146875000Y-80834000D02*
X146875000Y-80580000D01*
X156395000Y-113270000D02*
X147325000Y-113270000D01*
X134300000Y-124565000D02*
X134300000Y-124325000D01*
X138655000Y-130820000D02*
X146875000Y-130820000D01*
X146875000Y-89187000D02*
X147325000Y-89187000D01*
X146875000Y-63610963D02*
X134611000Y-63610963D01*
X147556000Y-77290963D02*
X146875000Y-77290963D01*
X156539000Y-56770963D02*
X147325000Y-56770963D01*
X147325000Y-71140963D02*
X158589000Y-71140963D01*
X146875000Y-63160963D02*
X134611000Y-63160963D01*
X147325000Y-116870000D02*
X158145000Y-116870000D01*
X153845000Y-132470000D02*
X147580000Y-132470000D01*
X147325000Y-72280963D02*
X146875000Y-72280963D01*
X147325000Y-127670000D02*
X146875000Y-127670000D01*
X153345000Y-110870000D02*
X147580000Y-110870000D01*
X136755000Y-114020000D02*
X146875000Y-114020000D01*
X147325000Y-54040963D02*
X146644000Y-54040963D01*
X160070000Y-68629963D02*
X160070000Y-68401963D01*
X147325000Y-76150963D02*
X154989000Y-76150963D01*
X146875000Y-64300963D02*
X147325000Y-64300963D01*
X134390000Y-89724000D02*
X134390000Y-89470000D01*
X157920000Y-73189963D02*
X157920000Y-72961963D01*
X147325000Y-119270000D02*
X159195000Y-119270000D01*
X147325000Y-102707000D02*
X146875000Y-102707000D01*
X146875000Y-129620000D02*
X136555000Y-129620000D01*
X146875000Y-96357000D02*
X147325000Y-96357000D01*
X146875000Y-114020000D02*
X147325000Y-114020000D01*
X146875000Y-91727000D02*
X147325000Y-91727000D01*
X140923000Y-104427000D02*
X146875000Y-104427000D01*
X146875000Y-56770963D02*
X138711000Y-56770963D01*
X147325000Y-63610963D02*
X146875000Y-63610963D01*
X147325000Y-56770963D02*
X146875000Y-56770963D01*
X147325000Y-114020000D02*
X156395000Y-114020000D01*
X158189000Y-58600963D02*
X147325000Y-58600963D01*
X159189000Y-60880963D02*
X147325000Y-60880963D01*
X135140000Y-99884000D02*
X135140000Y-99630000D01*
X159695000Y-122870000D02*
X147325000Y-122870000D01*
X147325000Y-85377000D02*
X146875000Y-85377000D01*
X146875000Y-108192868D02*
X146875000Y-107250000D01*
X159389000Y-67720963D02*
X147325000Y-67720963D01*
X160400000Y-120965000D02*
X160400000Y-120725000D01*
X147325000Y-101437000D02*
X157427000Y-101437000D01*
X147325000Y-100617000D02*
X146875000Y-100617000D01*
X150639000Y-77290963D02*
X147556000Y-77290963D01*
X134080000Y-65209963D02*
X134080000Y-64981963D01*
X159950000Y-120965000D02*
X159950000Y-120725000D01*
X146875000Y-91277000D02*
X147325000Y-91277000D01*
X147325000Y-68170963D02*
X146875000Y-68170963D01*
X156777000Y-84927000D02*
X147325000Y-84927000D01*
X147325000Y-87917000D02*
X146875000Y-87917000D01*
X147325000Y-121220000D02*
X159695000Y-121220000D01*
X137390000Y-102424000D02*
X137390000Y-102170000D01*
X160110000Y-90994000D02*
X160110000Y-90740000D01*
X146875000Y-56320963D02*
X138711000Y-56320963D01*
X146875000Y-95537000D02*
X134373000Y-95537000D01*
X159950000Y-125765000D02*
X159950000Y-125525000D01*
X146875000Y-93817000D02*
X147325000Y-93817000D01*
X135255000Y-126470000D02*
X146875000Y-126470000D01*
X159500000Y-125765000D02*
X159500000Y-125525000D01*
X147325000Y-100167000D02*
X146875000Y-100167000D01*
X147325000Y-93817000D02*
X159727000Y-93817000D01*
X146875000Y-117620000D02*
X135355000Y-117620000D01*
X147325000Y-65440963D02*
X146875000Y-65440963D01*
X147325000Y-66580963D02*
X159789000Y-66580963D01*
X157220000Y-57229963D02*
X157220000Y-57001963D01*
X147325000Y-62020963D02*
X159189000Y-62020963D01*
X146875000Y-62470963D02*
X147325000Y-62470963D01*
X146875000Y-116420000D02*
X147325000Y-116420000D01*
X136940000Y-102424000D02*
X136940000Y-102170000D01*
X146875000Y-85377000D02*
X138573000Y-85377000D01*
X135873000Y-98897000D02*
X146875000Y-98897000D01*
X146875000Y-105247000D02*
X140923000Y-105247000D01*
X147325000Y-94267000D02*
X159727000Y-94267000D01*
X157239000Y-72730963D02*
X147325000Y-72730963D01*
X156770000Y-57229963D02*
X156770000Y-57001963D01*
X135123000Y-88737000D02*
X146875000Y-88737000D01*
X158427000Y-87917000D02*
X147325000Y-87917000D01*
X146875000Y-64750963D02*
X147325000Y-64750963D01*
X147325000Y-115670000D02*
X146875000Y-115670000D01*
X147325000Y-92997000D02*
X146875000Y-92997000D01*
X159377000Y-90007000D02*
X147325000Y-90007000D01*
X146875000Y-122870000D02*
X134355000Y-122870000D01*
X140190000Y-104964000D02*
X140190000Y-104710000D01*
X158295000Y-127220000D02*
X147325000Y-127220000D01*
X134461000Y-66580963D02*
X146875000Y-66580963D01*
X138400000Y-131765000D02*
X138400000Y-131525000D01*
X158160000Y-101154000D02*
X158160000Y-100900000D01*
X146875000Y-112820000D02*
X139005000Y-112820000D01*
X146875000Y-72280963D02*
X136111000Y-72280963D01*
X135361000Y-59740963D02*
X146875000Y-59740963D01*
X139005000Y-111620000D02*
X146875000Y-111620000D01*
X147580000Y-111620000D02*
X153345000Y-111620000D01*
X146875000Y-76840963D02*
X140761000Y-76840963D01*
X146875000Y-75700963D02*
X147325000Y-75700963D01*
X146875000Y-95087000D02*
X134373000Y-95087000D01*
X147325000Y-89187000D02*
X158427000Y-89187000D01*
X159450000Y-118565000D02*
X159450000Y-118325000D01*
X147325000Y-80580000D02*
X147325000Y-79750000D01*
X135873000Y-99347000D02*
X146875000Y-99347000D01*
X135130000Y-60649963D02*
X135130000Y-60421963D01*
X157060000Y-85914000D02*
X157060000Y-85660000D01*
X159727000Y-92997000D02*
X147325000Y-92997000D01*
X159245000Y-124820000D02*
X147325000Y-124820000D01*
X159870000Y-61789963D02*
X159870000Y-61561963D01*
X146875000Y-126020000D02*
X147325000Y-126020000D01*
X153345000Y-110420000D02*
X147580000Y-110420000D01*
X134140000Y-97344000D02*
X134140000Y-97090000D01*
X147325000Y-126020000D02*
X159245000Y-126020000D01*
X147325000Y-60190963D02*
X158189000Y-60190963D01*
X146875000Y-59740963D02*
X147325000Y-59740963D01*
X153600000Y-111365000D02*
X153600000Y-111125000D01*
X146875000Y-66580963D02*
X147325000Y-66580963D01*
X159389000Y-68170963D02*
X147325000Y-68170963D01*
X147325000Y-114470000D02*
X156395000Y-114470000D01*
X159110000Y-98614000D02*
X159110000Y-98360000D01*
X147325000Y-55180963D02*
X153889000Y-55180963D01*
X147325000Y-67720963D02*
X146875000Y-67720963D01*
X136661000Y-57910963D02*
X146875000Y-57910963D01*
X159527000Y-95537000D02*
X147325000Y-95537000D01*
X135000000Y-126965000D02*
X135000000Y-126725000D01*
X158827000Y-97627000D02*
X147325000Y-97627000D01*
X146875000Y-68860963D02*
X147325000Y-68860963D01*
X135255000Y-126020000D02*
X146875000Y-126020000D01*
X146875000Y-116870000D02*
X147325000Y-116870000D01*
X160020000Y-66349963D02*
X160020000Y-66121963D01*
X146875000Y-122420000D02*
X134355000Y-122420000D01*
X146875000Y-90007000D02*
X135123000Y-90007000D01*
X147325000Y-82837000D02*
X146592000Y-82837000D01*
X147325000Y-122420000D02*
X146875000Y-122420000D01*
X147580000Y-132020000D02*
X146875000Y-132020000D01*
X134650000Y-117365000D02*
X134650000Y-117125000D01*
X158420000Y-59509963D02*
X158420000Y-59281963D01*
X146875000Y-79750000D02*
X146875000Y-78661963D01*
X142511000Y-53350963D02*
X146644000Y-53350963D01*
X134555000Y-124070000D02*
X146875000Y-124070000D01*
X133650000Y-122165000D02*
X133650000Y-121925000D01*
X135850000Y-129365000D02*
X135850000Y-129125000D01*
X147325000Y-120470000D02*
X146875000Y-120470000D01*
X147325000Y-131270000D02*
X156645000Y-131270000D01*
X146875000Y-132020000D02*
X138655000Y-132020000D01*
X146875000Y-67030963D02*
X147325000Y-67030963D01*
X147325000Y-52669963D02*
X147325000Y-52441963D01*
X147325000Y-124820000D02*
X146875000Y-124820000D01*
X147325000Y-58600963D02*
X146875000Y-58600963D01*
X147325000Y-103977000D02*
X155077000Y-103977000D01*
X134873000Y-96807000D02*
X146875000Y-96807000D01*
X157239000Y-72280963D02*
X147325000Y-72280963D01*
X147325000Y-59050963D02*
X146875000Y-59050963D01*
X140530000Y-76609963D02*
X140530000Y-76381963D01*
X150160000Y-106234000D02*
X150160000Y-105980000D01*
X147325000Y-70450963D02*
X146875000Y-70450963D01*
X159527000Y-95087000D02*
X147325000Y-95087000D01*
X147325000Y-69310963D02*
X159389000Y-69310963D01*
X146875000Y-84107000D02*
X147325000Y-84107000D01*
X158589000Y-70000963D02*
X147325000Y-70000963D01*
X136111000Y-71590963D02*
X146875000Y-71590963D01*
X158820000Y-70909963D02*
X158820000Y-70681963D01*
X146875000Y-127670000D02*
X135255000Y-127670000D01*
X137861000Y-73420963D02*
X146875000Y-73420963D01*
X146592000Y-82837000D02*
X142823000Y-82837000D01*
X147580000Y-133670000D02*
X153845000Y-133670000D01*
X146875000Y-105697000D02*
X140923000Y-105697000D01*
X150639000Y-76840963D02*
X147556000Y-76840963D01*
X134373000Y-93817000D02*
X146875000Y-93817000D01*
X133900000Y-119765000D02*
X133900000Y-119525000D01*
X154550000Y-132965000D02*
X154550000Y-132725000D01*
X154570000Y-54949963D02*
X154570000Y-54721963D01*
X146875000Y-75010963D02*
X137861000Y-75010963D01*
X160370000Y-64069963D02*
X160370000Y-63841963D01*
X135590000Y-99884000D02*
X135590000Y-99630000D01*
X136755000Y-114470000D02*
X146875000Y-114470000D01*
X134373000Y-94267000D02*
X146875000Y-94267000D01*
X146875000Y-76150963D02*
X147325000Y-76150963D01*
X147325000Y-64750963D02*
X159689000Y-64750963D01*
X146875000Y-55180963D02*
X147325000Y-55180963D01*
X157510000Y-85914000D02*
X157510000Y-85660000D01*
X159727000Y-92547000D02*
X147325000Y-92547000D01*
X136140000Y-87184000D02*
X136140000Y-86930000D01*
X147325000Y-88737000D02*
X158427000Y-88737000D01*
X138750000Y-112565000D02*
X138750000Y-112325000D01*
X138711000Y-55180963D02*
X146875000Y-55180963D01*
X134355000Y-121220000D02*
X146875000Y-121220000D01*
X135123000Y-89187000D02*
X146875000Y-89187000D01*
X147325000Y-91277000D02*
X159377000Y-91277000D01*
X147325000Y-95537000D02*
X146875000Y-95537000D01*
X134611000Y-62470963D02*
X146875000Y-62470963D01*
X158827000Y-98077000D02*
X147325000Y-98077000D01*
X134461000Y-67030963D02*
X146875000Y-67030963D01*
X147325000Y-82387000D02*
X146592000Y-82387000D01*
X147325000Y-104427000D02*
X155077000Y-104427000D01*
X147325000Y-99347000D02*
X158827000Y-99347000D01*
X146875000Y-77290963D02*
X140761000Y-77290963D01*
X146875000Y-60880963D02*
X135361000Y-60880963D01*
X135430000Y-72049963D02*
X135430000Y-71821963D01*
X138655000Y-131270000D02*
X146875000Y-131270000D01*
X147325000Y-101887000D02*
X157427000Y-101887000D01*
X134190000Y-92264000D02*
X134190000Y-92010000D01*
X137673000Y-101437000D02*
X146875000Y-101437000D01*
X146875000Y-94267000D02*
X147325000Y-94267000D01*
X147325000Y-118070000D02*
X146875000Y-118070000D01*
X146875000Y-130820000D02*
X147325000Y-130820000D01*
X159620000Y-68629963D02*
X159620000Y-68401963D01*
X147556000Y-78430963D02*
X150639000Y-78430963D01*
X147325000Y-57910963D02*
X156539000Y-57910963D01*
X146875000Y-57460963D02*
X147325000Y-57460963D01*
X137840000Y-84644000D02*
X137840000Y-84390000D01*
X136430000Y-58369963D02*
X136430000Y-58141963D01*
X147325000Y-110165000D02*
X147325000Y-109925000D01*
X134350000Y-119525000D02*
G75*
G02*
X134605000Y-119270000I255000J0D01*
G01*
X159695000Y-123620000D02*
G75*
G03*
X159950000Y-123365000I0J255000D01*
G01*
X139005000Y-112820000D02*
G75*
G02*
X138750000Y-112565000I0J255000D01*
G01*
X159377000Y-91277000D02*
G75*
G03*
X159660000Y-90994000I0J283000D01*
G01*
X138655000Y-132020000D02*
G75*
G02*
X138400000Y-131765000I0J255000D01*
G01*
X134605000Y-120470000D02*
G75*
G02*
X133900000Y-119765000I0J705000D01*
G01*
X134311000Y-65890963D02*
G75*
G02*
X133630037Y-65209963I0J680963D01*
G01*
X138300000Y-112325000D02*
G75*
G02*
X139005000Y-111620000I705000J0D01*
G01*
X159950000Y-120725000D02*
G75*
G03*
X159695000Y-120470000I-255000J0D01*
G01*
X133630000Y-64981963D02*
G75*
G02*
X134311000Y-64301000I681000J-37D01*
G01*
X146644000Y-52900963D02*
G75*
G03*
X146874963Y-52669963I0J230963D01*
G01*
X157427000Y-101887000D02*
G75*
G03*
X158160000Y-101154000I0J733000D01*
G01*
X147580000Y-110420000D02*
G75*
G02*
X147325000Y-110165000I0J255000D01*
G01*
X138480000Y-55861963D02*
G75*
G02*
X138711000Y-55631000I231000J-37D01*
G01*
X136661000Y-59050963D02*
G75*
G02*
X135980037Y-58369963I0J680963D01*
G01*
X154100000Y-132725000D02*
G75*
G03*
X153845000Y-132470000I-255000J0D01*
G01*
X158589000Y-71590963D02*
G75*
G03*
X159269963Y-70909963I0J680963D01*
G01*
X158420000Y-59281963D02*
G75*
G03*
X158189000Y-59051000I-231000J-37D01*
G01*
X154120000Y-54721963D02*
G75*
G03*
X153889000Y-54491000I-231000J-37D01*
G01*
X159000000Y-127925000D02*
G75*
G03*
X158295000Y-127220000I-705000J0D01*
G01*
X156539000Y-57460963D02*
G75*
G03*
X156769963Y-57229963I0J230963D01*
G01*
X134473000Y-92547000D02*
G75*
G02*
X134190000Y-92264000I0J283000D01*
G01*
X136050000Y-114725000D02*
G75*
G02*
X136755000Y-114020000I705000J0D01*
G01*
X160370000Y-63841963D02*
G75*
G03*
X159689000Y-63161000I-681000J-37D01*
G01*
X155077000Y-104427000D02*
G75*
G03*
X155810000Y-103694000I0J733000D01*
G01*
X134680000Y-60421963D02*
G75*
G02*
X135361000Y-59741000I681000J-37D01*
G01*
X142280000Y-53581963D02*
G75*
G02*
X142511000Y-53351000I231000J-37D01*
G01*
X135130000Y-60421963D02*
G75*
G02*
X135361000Y-60191000I231000J-37D01*
G01*
X142511000Y-54040963D02*
G75*
G02*
X142280037Y-53809963I0J230963D01*
G01*
X137180000Y-74101963D02*
G75*
G02*
X137861000Y-73421000I681000J-37D01*
G01*
X159160000Y-88200000D02*
G75*
G03*
X158427000Y-87467000I-733000J0D01*
G01*
X135123000Y-90457000D02*
G75*
G02*
X134390000Y-89724000I0J733000D01*
G01*
X133740000Y-92010000D02*
G75*
G02*
X134473000Y-91277000I733000J0D01*
G01*
X156395000Y-114020000D02*
G75*
G03*
X156650000Y-113765000I0J255000D01*
G01*
X134090000Y-94550000D02*
G75*
G02*
X134373000Y-94267000I283000J0D01*
G01*
X158827000Y-99347000D02*
G75*
G03*
X159560000Y-98614000I0J733000D01*
G01*
X135361000Y-60880963D02*
G75*
G02*
X135130037Y-60649963I0J230963D01*
G01*
X157239000Y-73870963D02*
G75*
G03*
X157919963Y-73189963I0J680963D01*
G01*
X159920000Y-63841963D02*
G75*
G03*
X159689000Y-63611000I-231000J-37D01*
G01*
X160070000Y-68401963D02*
G75*
G03*
X159389000Y-67721000I-681000J-37D01*
G01*
X136755000Y-115220000D02*
G75*
G02*
X136500000Y-114965000I0J255000D01*
G01*
X135880000Y-71821963D02*
G75*
G02*
X136111000Y-71591000I231000J-37D01*
G01*
X146592000Y-81567000D02*
G75*
G03*
X147325000Y-80834000I0J733000D01*
G01*
X135980000Y-58141963D02*
G75*
G02*
X136661000Y-57461000I681000J-37D01*
G01*
X154570000Y-54721963D02*
G75*
G03*
X153889000Y-54041000I-681000J-37D01*
G01*
X135361000Y-61330963D02*
G75*
G02*
X134680037Y-60649963I0J680963D01*
G01*
X158550000Y-127925000D02*
G75*
G03*
X158295000Y-127670000I-255000J0D01*
G01*
X159695000Y-121670000D02*
G75*
G03*
X160400000Y-120965000I0J705000D01*
G01*
X153877000Y-83657000D02*
G75*
G03*
X154160000Y-83374000I0J283000D01*
G01*
X134840000Y-89470000D02*
G75*
G02*
X135123000Y-89187000I283000J0D01*
G01*
X153889000Y-55180963D02*
G75*
G03*
X154119963Y-54949963I0J230963D01*
G01*
X150870000Y-77521963D02*
G75*
G03*
X150639000Y-77291000I-231000J-37D01*
G01*
X135355000Y-118070000D02*
G75*
G02*
X134650000Y-117365000I0J705000D01*
G01*
X134355000Y-122870000D02*
G75*
G02*
X133650000Y-122165000I0J705000D01*
G01*
X153345000Y-112070000D02*
G75*
G03*
X154050000Y-111365000I0J705000D01*
G01*
X153845000Y-133670000D02*
G75*
G03*
X154550000Y-132965000I0J705000D01*
G01*
X135430000Y-71821963D02*
G75*
G02*
X136111000Y-71141000I681000J-37D01*
G01*
X159950000Y-125525000D02*
G75*
G03*
X159245000Y-124820000I-705000J0D01*
G01*
X137673000Y-103157000D02*
G75*
G02*
X136940000Y-102424000I0J733000D01*
G01*
X159527000Y-96357000D02*
G75*
G03*
X159810000Y-96074000I0J283000D01*
G01*
X134611000Y-63610963D02*
G75*
G02*
X133930037Y-62929963I0J680963D01*
G01*
X136940000Y-102170000D02*
G75*
G02*
X137673000Y-101437000I733000J0D01*
G01*
X140761000Y-76840963D02*
G75*
G02*
X140530037Y-76609963I0J230963D01*
G01*
X137861000Y-75010963D02*
G75*
G02*
X137180037Y-74329963I0J680963D01*
G01*
X159660000Y-90740000D02*
G75*
G03*
X159377000Y-90457000I-283000J0D01*
G01*
X136555000Y-129620000D02*
G75*
G02*
X136300000Y-129365000I0J255000D01*
G01*
X134390000Y-89470000D02*
G75*
G02*
X135123000Y-88737000I733000J0D01*
G01*
X158850000Y-115925000D02*
G75*
G03*
X158145000Y-115220000I-705000J0D01*
G01*
X158295000Y-128420000D02*
G75*
G03*
X158550000Y-128165000I0J255000D01*
G01*
X159377000Y-91727000D02*
G75*
G03*
X160110000Y-90994000I0J733000D01*
G01*
X159450000Y-118325000D02*
G75*
G03*
X159195000Y-118070000I-255000J0D01*
G01*
X159245000Y-126020000D02*
G75*
G03*
X159500000Y-125765000I0J255000D01*
G01*
X160110000Y-90740000D02*
G75*
G03*
X159377000Y-90007000I-733000J0D01*
G01*
X138573000Y-84927000D02*
G75*
G02*
X138290000Y-84644000I0J283000D01*
G01*
X134311000Y-65440963D02*
G75*
G02*
X134080037Y-65209963I0J230963D01*
G01*
X158427000Y-88737000D02*
G75*
G03*
X158710000Y-88454000I0J283000D01*
G01*
X150639000Y-77980963D02*
G75*
G03*
X150869963Y-77749963I0J230963D01*
G01*
X134373000Y-95087000D02*
G75*
G02*
X134090000Y-94804000I0J283000D01*
G01*
X156650000Y-113525000D02*
G75*
G03*
X156395000Y-113270000I-255000J0D01*
G01*
X138711000Y-56770963D02*
G75*
G02*
X138030037Y-56089963I0J680963D01*
G01*
X150610000Y-105980000D02*
G75*
G03*
X149877000Y-105247000I-733000J0D01*
G01*
X160400000Y-123125000D02*
G75*
G03*
X159695000Y-122420000I-705000J0D01*
G01*
X136300000Y-129125000D02*
G75*
G02*
X136555000Y-128870000I255000J0D01*
G01*
X135690000Y-86930000D02*
G75*
G02*
X136423000Y-86197000I733000J0D01*
G01*
X146875000Y-78661963D02*
G75*
G02*
X147556000Y-77981000I681000J-37D01*
G01*
X135590000Y-99630000D02*
G75*
G02*
X135873000Y-99347000I283000J0D01*
G01*
X156395000Y-114470000D02*
G75*
G03*
X157100000Y-113765000I0J705000D01*
G01*
X140080000Y-76381963D02*
G75*
G02*
X140761000Y-75701000I681000J-37D01*
G01*
X136140000Y-86930000D02*
G75*
G02*
X136423000Y-86647000I283000J0D01*
G01*
X136661000Y-58600963D02*
G75*
G02*
X136430037Y-58369963I0J230963D01*
G01*
X134650000Y-117125000D02*
G75*
G02*
X135355000Y-116420000I705000J0D01*
G01*
X134380000Y-62701963D02*
G75*
G02*
X134611000Y-62471000I231000J-37D01*
G01*
X160470000Y-66121963D02*
G75*
G03*
X159789000Y-65441000I-681000J-37D01*
G01*
X135873000Y-100617000D02*
G75*
G02*
X135140000Y-99884000I0J733000D01*
G01*
X134590000Y-97090000D02*
G75*
G02*
X134873000Y-96807000I283000J0D01*
G01*
X155220000Y-75241963D02*
G75*
G03*
X154989000Y-75011000I-231000J-37D01*
G01*
X156777000Y-86197000D02*
G75*
G03*
X157060000Y-85914000I0J283000D01*
G01*
X159689000Y-64300963D02*
G75*
G03*
X159919963Y-64069963I0J230963D01*
G01*
X156645000Y-130820000D02*
G75*
G03*
X156900000Y-130565000I0J255000D01*
G01*
X159695000Y-124070000D02*
G75*
G03*
X160400000Y-123365000I0J705000D01*
G01*
X135000000Y-126725000D02*
G75*
G02*
X135255000Y-126470000I255000J0D01*
G01*
X140640000Y-104710000D02*
G75*
G02*
X140923000Y-104427000I283000J0D01*
G01*
X136423000Y-87917000D02*
G75*
G02*
X135690000Y-87184000I0J733000D01*
G01*
X158145000Y-116420000D02*
G75*
G03*
X158400000Y-116165000I0J255000D01*
G01*
X155077000Y-103977000D02*
G75*
G03*
X155360000Y-103694000I0J283000D01*
G01*
X154610000Y-83120000D02*
G75*
G03*
X153877000Y-82387000I-733000J0D01*
G01*
X156539000Y-57910963D02*
G75*
G03*
X157219963Y-57229963I0J680963D01*
G01*
X141830000Y-53581963D02*
G75*
G02*
X142511000Y-52901000I681000J-37D01*
G01*
X134080000Y-64981963D02*
G75*
G02*
X134311000Y-64751000I231000J-37D01*
G01*
X140923000Y-105697000D02*
G75*
G02*
X140190000Y-104964000I0J733000D01*
G01*
X159527000Y-96807000D02*
G75*
G03*
X160260000Y-96074000I0J733000D01*
G01*
X154550000Y-132725000D02*
G75*
G03*
X153845000Y-132020000I-705000J0D01*
G01*
X136555000Y-130070000D02*
G75*
G02*
X135850000Y-129365000I0J705000D01*
G01*
X159727000Y-94267000D02*
G75*
G03*
X160460000Y-93534000I0J733000D01*
G01*
X134550000Y-126725000D02*
G75*
G02*
X135255000Y-126020000I705000J0D01*
G01*
X136111000Y-72280963D02*
G75*
G02*
X135880037Y-72049963I0J230963D01*
G01*
X157239000Y-73420963D02*
G75*
G03*
X157469963Y-73189963I0J230963D01*
G01*
X159189000Y-62470963D02*
G75*
G03*
X159869963Y-61789963I0J680963D01*
G01*
X138030000Y-55861963D02*
G75*
G02*
X138711000Y-55181000I681000J-37D01*
G01*
X146592000Y-81117000D02*
G75*
G03*
X146875000Y-80834000I0J283000D01*
G01*
X158160000Y-100900000D02*
G75*
G03*
X157427000Y-100167000I-733000J0D01*
G01*
X134473000Y-92997000D02*
G75*
G02*
X133740000Y-92264000I0J733000D01*
G01*
X137861000Y-74560963D02*
G75*
G02*
X137630037Y-74329963I0J230963D01*
G01*
X146644000Y-53350963D02*
G75*
G03*
X147324963Y-52669963I0J680963D01*
G01*
X142823000Y-82837000D02*
G75*
G02*
X142090000Y-82104000I0J733000D01*
G01*
X157510000Y-85660000D02*
G75*
G03*
X156777000Y-84927000I-733000J0D01*
G01*
X156770000Y-57001963D02*
G75*
G03*
X156539000Y-56771000I-231000J-37D01*
G01*
X147325000Y-133925000D02*
G75*
G02*
X147580000Y-133670000I255000J0D01*
G01*
X158710000Y-88200000D02*
G75*
G03*
X158427000Y-87917000I-283000J0D01*
G01*
X134873000Y-98077000D02*
G75*
G02*
X134140000Y-97344000I0J733000D01*
G01*
X140190000Y-104710000D02*
G75*
G02*
X140923000Y-103977000I733000J0D01*
G01*
X139005000Y-113270000D02*
G75*
G02*
X138300000Y-112565000I0J705000D01*
G01*
X157427000Y-101437000D02*
G75*
G03*
X157710000Y-101154000I0J283000D01*
G01*
X138400000Y-131525000D02*
G75*
G02*
X138655000Y-131270000I255000J0D01*
G01*
X135140000Y-99630000D02*
G75*
G02*
X135873000Y-98897000I733000J0D01*
G01*
X146875000Y-107250000D02*
G75*
G02*
X147608000Y-106517000I733000J0D01*
G01*
X137840000Y-84390000D02*
G75*
G02*
X138573000Y-83657000I733000J0D01*
G01*
X134300000Y-124325000D02*
G75*
G02*
X134555000Y-124070000I255000J0D01*
G01*
X157710000Y-100900000D02*
G75*
G03*
X157427000Y-100617000I-283000J0D01*
G01*
X157350000Y-130325000D02*
G75*
G03*
X156645000Y-129620000I-705000J0D01*
G01*
X158870000Y-59281963D02*
G75*
G03*
X158189000Y-58601000I-681000J-37D01*
G01*
X138655000Y-132470000D02*
G75*
G02*
X137950000Y-131765000I0J705000D01*
G01*
X138750000Y-112325000D02*
G75*
G02*
X139005000Y-112070000I255000J0D01*
G01*
X159270000Y-70681963D02*
G75*
G03*
X158589000Y-70001000I-681000J-37D01*
G01*
X158827000Y-98897000D02*
G75*
G03*
X159110000Y-98614000I0J283000D01*
G01*
X134461000Y-68170963D02*
G75*
G02*
X133780037Y-67489963I0J680963D01*
G01*
X159500000Y-125525000D02*
G75*
G03*
X159245000Y-125270000I-255000J0D01*
G01*
X153345000Y-111620000D02*
G75*
G03*
X153600000Y-111365000I0J255000D01*
G01*
X157060000Y-85660000D02*
G75*
G03*
X156777000Y-85377000I-283000J0D01*
G01*
X146875000Y-133925000D02*
G75*
G02*
X147580000Y-133220000I705000J0D01*
G01*
X133640000Y-94550000D02*
G75*
G02*
X134373000Y-93817000I733000J0D01*
G01*
X157220000Y-57001963D02*
G75*
G03*
X156539000Y-56321000I-681000J-37D01*
G01*
X159727000Y-93817000D02*
G75*
G03*
X160010000Y-93534000I0J283000D01*
G01*
X159789000Y-67030963D02*
G75*
G03*
X160469963Y-66349963I0J680963D01*
G01*
X134830000Y-69541963D02*
G75*
G02*
X135061000Y-69311000I231000J-37D01*
G01*
X153845000Y-133220000D02*
G75*
G03*
X154100000Y-132965000I0J255000D01*
G01*
X134605000Y-120020000D02*
G75*
G02*
X134350000Y-119765000I0J255000D01*
G01*
X160460000Y-93280000D02*
G75*
G03*
X159727000Y-92547000I-733000J0D01*
G01*
X137673000Y-102707000D02*
G75*
G02*
X137390000Y-102424000I0J283000D01*
G01*
X135123000Y-90007000D02*
G75*
G02*
X134840000Y-89724000I0J283000D01*
G01*
X151320000Y-77521963D02*
G75*
G03*
X150639000Y-76841000I-681000J-37D01*
G01*
X155670000Y-75241963D02*
G75*
G03*
X154989000Y-74561000I-681000J-37D01*
G01*
X159695000Y-121220000D02*
G75*
G03*
X159950000Y-120965000I0J255000D01*
G01*
X147325000Y-107250000D02*
G75*
G02*
X147608000Y-106967000I283000J0D01*
G01*
X155360000Y-103440000D02*
G75*
G03*
X155077000Y-103157000I-283000J0D01*
G01*
X137390000Y-102170000D02*
G75*
G02*
X137673000Y-101887000I283000J0D01*
G01*
X140530000Y-76381963D02*
G75*
G02*
X140761000Y-76151000I231000J-37D01*
G01*
X154050000Y-111125000D02*
G75*
G03*
X153345000Y-110420000I-705000J0D01*
G01*
X134380000Y-69541963D02*
G75*
G02*
X135061000Y-68861000I681000J-37D01*
G01*
X157920000Y-72961963D02*
G75*
G03*
X157239000Y-72281000I-681000J-37D01*
G01*
X159389000Y-68860963D02*
G75*
G03*
X159619963Y-68629963I0J230963D01*
G01*
X135255000Y-127670000D02*
G75*
G02*
X134550000Y-126965000I0J705000D01*
G01*
X142090000Y-81850000D02*
G75*
G02*
X142823000Y-81117000I733000J0D01*
G01*
X149877000Y-106967000D02*
G75*
G03*
X150610000Y-106234000I0J733000D01*
G01*
X150639000Y-78430963D02*
G75*
G03*
X151319963Y-77749963I0J680963D01*
G01*
X135061000Y-70450963D02*
G75*
G02*
X134380037Y-69769963I0J680963D01*
G01*
X138573000Y-85377000D02*
G75*
G02*
X137840000Y-84644000I0J733000D01*
G01*
X142823000Y-82387000D02*
G75*
G02*
X142540000Y-82104000I0J283000D01*
G01*
X140761000Y-77290963D02*
G75*
G02*
X140080037Y-76609963I0J680963D01*
G01*
X160260000Y-95820000D02*
G75*
G03*
X159527000Y-95087000I-733000J0D01*
G01*
X160020000Y-66121963D02*
G75*
G03*
X159789000Y-65891000I-231000J-37D01*
G01*
X154989000Y-75700963D02*
G75*
G03*
X155219963Y-75469963I0J230963D01*
G01*
X137630000Y-74101963D02*
G75*
G02*
X137861000Y-73871000I231000J-37D01*
G01*
X153600000Y-111125000D02*
G75*
G03*
X153345000Y-110870000I-255000J0D01*
G01*
X159195000Y-119270000D02*
G75*
G03*
X159900000Y-118565000I0J705000D01*
G01*
X134555000Y-124820000D02*
G75*
G02*
X134300000Y-124565000I0J255000D01*
G01*
X158589000Y-71140963D02*
G75*
G03*
X158819963Y-70909963I0J230963D01*
G01*
X133650000Y-121925000D02*
G75*
G02*
X134355000Y-121220000I705000J0D01*
G01*
X133900000Y-119525000D02*
G75*
G02*
X134605000Y-118820000I705000J0D01*
G01*
X153877000Y-84107000D02*
G75*
G03*
X154610000Y-83374000I0J733000D01*
G01*
X159620000Y-68401963D02*
G75*
G03*
X159389000Y-68171000I-231000J-37D01*
G01*
X136423000Y-87467000D02*
G75*
G02*
X136140000Y-87184000I0J283000D01*
G01*
X142511000Y-54490963D02*
G75*
G02*
X141830037Y-53809963I0J680963D01*
G01*
X135355000Y-117620000D02*
G75*
G02*
X135100000Y-117365000I0J255000D01*
G01*
X135850000Y-129125000D02*
G75*
G02*
X136555000Y-128420000I705000J0D01*
G01*
X154160000Y-83120000D02*
G75*
G03*
X153877000Y-82837000I-283000J0D01*
G01*
X135873000Y-100167000D02*
G75*
G02*
X135590000Y-99884000I0J283000D01*
G01*
X158427000Y-89187000D02*
G75*
G03*
X159160000Y-88454000I0J733000D01*
G01*
X138711000Y-56320963D02*
G75*
G02*
X138480037Y-56089963I0J230963D01*
G01*
X134140000Y-97090000D02*
G75*
G02*
X134873000Y-96357000I733000J0D01*
G01*
X158295000Y-128870000D02*
G75*
G03*
X159000000Y-128165000I0J705000D01*
G01*
X134611000Y-63160963D02*
G75*
G02*
X134380037Y-62929963I0J230963D01*
G01*
X134873000Y-97627000D02*
G75*
G02*
X134590000Y-97344000I0J283000D01*
G01*
X157100000Y-113525000D02*
G75*
G03*
X156395000Y-112820000I-705000J0D01*
G01*
X136430000Y-58141963D02*
G75*
G02*
X136661000Y-57911000I231000J-37D01*
G01*
X140923000Y-105247000D02*
G75*
G02*
X140640000Y-104964000I0J283000D01*
G01*
X159389000Y-69310963D02*
G75*
G03*
X160069963Y-68629963I0J680963D01*
G01*
X158820000Y-70681963D02*
G75*
G03*
X158589000Y-70451000I-231000J-37D01*
G01*
X138290000Y-84390000D02*
G75*
G02*
X138573000Y-84107000I283000J0D01*
G01*
X159900000Y-118325000D02*
G75*
G03*
X159195000Y-117620000I-705000J0D01*
G01*
X134373000Y-95537000D02*
G75*
G02*
X133640000Y-94804000I0J733000D01*
G01*
X159560000Y-98360000D02*
G75*
G03*
X158827000Y-97627000I-733000J0D01*
G01*
X159195000Y-118820000D02*
G75*
G03*
X159450000Y-118565000I0J255000D01*
G01*
X147325000Y-78661963D02*
G75*
G02*
X147556000Y-78431000I231000J-37D01*
G01*
X156900000Y-130325000D02*
G75*
G03*
X156645000Y-130070000I-255000J0D01*
G01*
X150160000Y-105980000D02*
G75*
G03*
X149877000Y-105697000I-283000J0D01*
G01*
X147580000Y-110870000D02*
G75*
G02*
X146875000Y-110165000I0J705000D01*
G01*
X159950000Y-123125000D02*
G75*
G03*
X159695000Y-122870000I-255000J0D01*
G01*
X159810000Y-95820000D02*
G75*
G03*
X159527000Y-95537000I-283000J0D01*
G01*
X159689000Y-64750963D02*
G75*
G03*
X160369963Y-64069963I0J680963D01*
G01*
X155810000Y-103440000D02*
G75*
G03*
X155077000Y-102707000I-733000J0D01*
G01*
X133930000Y-62701963D02*
G75*
G02*
X134611000Y-62021000I681000J-37D01*
G01*
X134190000Y-92010000D02*
G75*
G02*
X134473000Y-91727000I283000J0D01*
G01*
X159420000Y-61561963D02*
G75*
G03*
X159189000Y-61331000I-231000J-37D01*
G01*
X156645000Y-131270000D02*
G75*
G03*
X157350000Y-130565000I0J705000D01*
G01*
X156777000Y-86647000D02*
G75*
G03*
X157510000Y-85914000I0J733000D01*
G01*
X137950000Y-131525000D02*
G75*
G02*
X138655000Y-130820000I705000J0D01*
G01*
X159110000Y-98360000D02*
G75*
G03*
X158827000Y-98077000I-283000J0D01*
G01*
X157470000Y-72961963D02*
G75*
G03*
X157239000Y-72731000I-231000J-37D01*
G01*
X159245000Y-126470000D02*
G75*
G03*
X159950000Y-125765000I0J705000D01*
G01*
X135061000Y-70000963D02*
G75*
G02*
X134830037Y-69769963I0J230963D01*
G01*
X158145000Y-116870000D02*
G75*
G03*
X158850000Y-116165000I0J705000D01*
G01*
X153889000Y-55630963D02*
G75*
G03*
X154569963Y-54949963I0J680963D01*
G01*
X154989000Y-76150963D02*
G75*
G03*
X155669963Y-75469963I0J680963D01*
G01*
X159870000Y-61561963D02*
G75*
G03*
X159189000Y-60881000I-681000J-37D01*
G01*
X133850000Y-124325000D02*
G75*
G02*
X134555000Y-123620000I705000J0D01*
G01*
X136500000Y-114725000D02*
G75*
G02*
X136755000Y-114470000I255000J0D01*
G01*
X134461000Y-67720963D02*
G75*
G02*
X134230037Y-67489963I0J230963D01*
G01*
X160010000Y-93280000D02*
G75*
G03*
X159727000Y-92997000I-283000J0D01*
G01*
X158189000Y-60190963D02*
G75*
G03*
X158869963Y-59509963I0J680963D01*
G01*
X134355000Y-122420000D02*
G75*
G02*
X134100000Y-122165000I0J255000D01*
G01*
X160400000Y-120725000D02*
G75*
G03*
X159695000Y-120020000I-705000J0D01*
G01*
X142540000Y-81850000D02*
G75*
G02*
X142823000Y-81567000I283000J0D01*
G01*
X159789000Y-66580963D02*
G75*
G03*
X160019963Y-66349963I0J230963D01*
G01*
X135255000Y-127220000D02*
G75*
G02*
X135000000Y-126965000I0J255000D01*
G01*
X136755000Y-115670000D02*
G75*
G02*
X136050000Y-114965000I0J705000D01*
G01*
X159189000Y-62020963D02*
G75*
G03*
X159419963Y-61789963I0J230963D01*
G01*
X134555000Y-125270000D02*
G75*
G02*
X133850000Y-124565000I0J705000D01*
G01*
X158400000Y-115925000D02*
G75*
G03*
X158145000Y-115670000I-255000J0D01*
G01*
X136111000Y-72730963D02*
G75*
G02*
X135430037Y-72049963I0J680963D01*
G01*
X134230000Y-67261963D02*
G75*
G02*
X134461000Y-67031000I231000J-37D01*
G01*
X149877000Y-106517000D02*
G75*
G03*
X150160000Y-106234000I0J283000D01*
G01*
X133780000Y-67261963D02*
G75*
G02*
X134461000Y-66581000I681000J-37D01*
G01*
X135100000Y-117125000D02*
G75*
G02*
X135355000Y-116870000I255000J0D01*
G01*
X158189000Y-59740963D02*
G75*
G03*
X158419963Y-59509963I0J230963D01*
G01*
X134100000Y-121925000D02*
G75*
G02*
X134355000Y-121670000I255000J0D01*
G01*
%TD*%
M02*
